<svg xmlns="http://www.w3.org/2000/svg" width="32" height="32" viewBox="0 0 32 32">
  <rect width="32" height="32" rx="8" fill="#09090b"/>
  <g fill="none">
    <!-- Wasabi leaf shape -->
    <path d="M16 6c-4 4-7 8-7 13a7 7 0 0014 0c0-5-3-9-7-13z" fill="#22c55e" opacity="0.85"/>
    <path d="M16 6c-4 4-7 8-7 13a7 7 0 0014 0c0-5-3-9-7-13z" stroke="#16a34a" stroke-width="1" opacity="0.5"/>
    <!-- Leaf vein -->
    <path d="M16 10v12M13 15l3-2 3 2M13.5 19l2.5-1.5 2.5 1.5" stroke="#15803d" stroke-width="1" stroke-linecap="round" opacity="0.5"/>
    <!-- Highlight dot -->
    <circle cx="16" cy="14" r="1.5" fill="#4ade80" opacity="0.8"/>
  </g>
</svg>
